<?xml version="1.0" encoding="utf-8"?>
<!-- Generator: Adobe Illustrator 16.0.0, SVG Export Plug-In . SVG Version: 6.00 Build 0)  -->
<!DOCTYPE svg PUBLIC "-//W3C//DTD SVG 1.1//EN" "http://www.w3.org/Graphics/SVG/1.1/DTD/svg11.dtd">
<svg version="1.1" id="Capa_1" xmlns="http://www.w3.org/2000/svg" xmlns:xlink="http://www.w3.org/1999/xlink" x="0px" y="0px"
	 width="526px" height="476px" viewBox="0 0 526 476" enable-background="new 0 0 526 476" xml:space="preserve">
<g id="Capa_1_1_">
	<g transform="translate(40,28)">
		<g>
			<g transform="translate(0,0)">
				<path fill="none" d="M0,0L0,0L0,0L0,0z"/>
				<g>
					<g>
						<g transform="translate(0,0)">
							<path fill="none" stroke="#DDDDDD" d="M0.5,0.5h400v300H0.5V0.5z"/>
							<g>
								<g>
									<g transform="translate(0.5,300.5)">
										<path fill="none" d="M0,0L0,0L0,0L0,0z"/>
										<g>
											<g>
												<line fill="none" stroke="#888888" x1="220" y1="0" x2="220" y2="5"/>
												<line fill="none" stroke="#888888" x1="240" y1="0" x2="240" y2="5"/>
												<line fill="none" stroke="#888888" x1="260" y1="0" x2="260" y2="5"/>
												<line fill="none" stroke="#888888" x1="280" y1="0" x2="280" y2="5"/>
												<line fill="none" stroke="#888888" x1="300" y1="0" x2="300" y2="5"/>
												<line fill="none" stroke="#888888" x1="320" y1="0" x2="320" y2="5"/>
												<line fill="none" stroke="#888888" x1="340" y1="0" x2="340" y2="5"/>
												<line fill="none" stroke="#888888" x1="360" y1="0" x2="360" y2="5"/>
												<line fill="none" stroke="#888888" x1="380" y1="0" x2="380" y2="5"/>
											</g>
											<g>
												<text transform="matrix(1 0 0 1 214.4377 15)" font-family="'ArialMT'" font-size="10">55</text>
												<text transform="matrix(1 0 0 1 234.4377 15)" font-family="'ArialMT'" font-size="10">60</text>
												<text transform="matrix(1 0 0 1 254.4377 15)" font-family="'ArialMT'" font-size="10">65</text>
												<text transform="matrix(1 0 0 1 274.4377 15)" font-family="'ArialMT'" font-size="10">70</text>
												<text transform="matrix(1 0 0 1 294.4377 15)" font-family="'ArialMT'" font-size="10">75</text>
												<text transform="matrix(1 0 0 1 314.4377 15)" font-family="'ArialMT'" font-size="10">80</text>
												<text transform="matrix(1 0 0 1 334.4377 15)" font-family="'ArialMT'" font-size="10">85</text>
												<text transform="matrix(1 0 0 1 354.4377 15)" font-family="'ArialMT'" font-size="10">90</text>
												<text transform="matrix(1 0 0 1 374.4377 15)" font-family="'ArialMT'" font-size="10">95</text>
											</g>
											<g>
												<line fill="none" stroke="#888888" x1="0" y1="0" x2="400" y2="0"/>
											</g>
											<g>
												<text transform="matrix(1 0 0 1 180.5427 30)" font-family="'Arial-BoldMT'" font-size="11">Tiempo</text>
											</g>
										</g>
										<path display="none" d="M0,0"/>
									</g>
								</g>
								<g>
									<g transform="translate(0.5,0.5)">
										<path fill="none" d="M0,0L0,0L0,0L0,0z"/>
										<g>
											<g>
												<line fill="none" stroke="#888888" x1="0" y1="300" x2="-5" y2="300"/>
												<line fill="none" stroke="#888888" x1="0" y1="275" x2="-5" y2="275"/>
												<line fill="none" stroke="#888888" x1="0" y1="250" x2="-5" y2="250"/>
												<line fill="none" stroke="#888888" x1="0" y1="225" x2="-5" y2="225"/>
												<line fill="none" stroke="#888888" x1="0" y1="200" x2="-5" y2="200"/>
												<line fill="none" stroke="#888888" x1="0" y1="175" x2="-5" y2="175"/>
												<line fill="none" stroke="#888888" x1="0" y1="150" x2="-5" y2="150"/>
												<line fill="none" stroke="#888888" x1="0" y1="125" x2="-5" y2="125"/>
												<line fill="none" stroke="#888888" x1="0" y1="100" x2="-5" y2="100"/>
												<line fill="none" stroke="#888888" x1="0" y1="75" x2="-5" y2="75"/>
												<line fill="none" stroke="#888888" x1="0" y1="50" x2="-5" y2="50"/>
												<line fill="none" stroke="#888888" x1="0" y1="25" x2="-5" y2="25"/>
												<line fill="none" stroke="#888888" x1="0" y1="0" x2="-5" y2="0"/>
											</g>
											<g>
												<text transform="matrix(1 0 0 1 -18.1238 303)" font-family="'ArialMT'" font-size="10">12</text>
												<text transform="matrix(1 0 0 1 -18.1238 278)" font-family="'ArialMT'" font-size="10">14</text>
												<text transform="matrix(1 0 0 1 -18.1238 253)" font-family="'ArialMT'" font-size="10">16</text>
												<text transform="matrix(1 0 0 1 -18.1238 228)" font-family="'ArialMT'" font-size="10">18</text>
												<text transform="matrix(1 0 0 1 -18.1238 203)" font-family="'ArialMT'" font-size="10">20</text>
												<text transform="matrix(1 0 0 1 -18.1238 178)" font-family="'ArialMT'" font-size="10">22</text>
												<text transform="matrix(1 0 0 1 -18.1238 153)" font-family="'ArialMT'" font-size="10">24</text>
												<text transform="matrix(1 0 0 1 -18.1238 128)" font-family="'ArialMT'" font-size="10">26</text>
												<text transform="matrix(1 0 0 1 -18.1238 103)" font-family="'ArialMT'" font-size="10">28</text>
												<text transform="matrix(1 0 0 1 -18.1238 78)" font-family="'ArialMT'" font-size="10">30</text>
												<text transform="matrix(1 0 0 1 -18.1238 53)" font-family="'ArialMT'" font-size="10">32</text>
												<text transform="matrix(1 0 0 1 -18.1238 28)" font-family="'ArialMT'" font-size="10">34</text>
												<text transform="matrix(1 0 0 1 -18.1238 3)" font-family="'ArialMT'" font-size="10">36</text>
											</g>
											<g>
												<line fill="none" stroke="#888888" x1="0" y1="300" x2="0" y2="0"/>
											</g>
											<g>
												
													<text transform="matrix(6.123234e-017 -1 1 6.123234e-017 -24.1228 258.5068)" font-family="'Arial-BoldMT'" font-size="11">Precio maximo, minimo, medio y muestra</text>
											</g>
										</g>
										<path display="none" d="M0,0"/>
									</g>
								</g>
								<g>
									<path opacity="0.8" fill="none" stroke="#BC2D30" stroke-width="2" enable-background="new    " d="M0,56.25L4,50l4-6.25h4
										l4-6.25l4-6.25L24,25l4,6.25L32,25l4-6.25L40,25l4-6.25l4-6.25l4-6.25L56,0h4h4l4,6.25L72,0l4,6.25L80,0h4h4l4,6.25l4,6.25
										l4-6.25L104,0l4,6.25L112,0h4h4h4l4,6.25L132,0h4h4l4,6.25h4L152,0h4h4h4h4h4h4h4h4h4h4h4h4h4h4h4h4h4h4h4h4h4h4l4,6.25
										L248,0l4,6.25L256,0l4,6.25l4,6.25l4-6.25L272,0l4,18.75h4h4h4h4h4h4h4h4h4h4h4h4l4,6.25l4-6.25l4,6.25l4,6.25l4-6.25
										l4,6.25l4-6.25l4,6.25l4-6.25l4,6.25"/>
								</g>
								<g>
									<path opacity="0.7" fill="none" stroke="#6F3D79" stroke-width="2" enable-background="new    " d="M0,62.5l4,6.25L8,75
										l4,6.25l4,6.25l4,6.25l4,6.25l4-6.25l4,6.25l4,6.25l4-6.25l4,6.25l4,6.25l4,6.25l4,6.25h4l4,6.25l4-6.25l4,6.25l4-6.25h4
										l4,6.25l4,6.25l4-6.25l4,6.25l4-6.25l4,6.25l4-6.25l4-6.25l4-6.25l4-6.25h4h4l4-6.25l4-6.25l4,6.25l4-6.25l4-6.25l4-6.25
										l4,6.25l4-6.25l4,6.25l4-6.25l4-6.25l4-6.25l4-6.25l4,6.25l4-6.25l4-6.25l4,6.25l4-6.25l4,6.25l4-6.25l4-6.25l4,6.25
										l4-6.25l4-6.25l4,6.25l4-6.25h4h4l4-6.25l4,6.25l4-6.25l4,6.25l4-6.25h4h4h4h4h4h4h4h4l4-6.25l4,6.25l4-6.25l4,6.25l4-6.25
										l4,6.25l4-6.25l4,6.25l4-6.25l4,6.25l4-6.25l4,6.25l4-6.25l4,6.25L352,25l4,6.25l4-6.25l4,6.25"/>
								</g>
								<g>
									<path opacity="0.6" fill="none" stroke="#2E578C" stroke-width="2" enable-background="new    " d="M2.739,59.375
										c0,1.513-1.226,2.739-2.737,2.739c-1.513,0-2.739-1.226-2.739-2.739S-1.512,56.636,0,56.636
										C1.512,56.636,2.739,57.862,2.739,59.375"/>
									<path opacity="0.6" fill="none" stroke="#2E578C" stroke-width="2" enable-background="new    " d="M6.739,59.375
										c0,1.513-1.226,2.739-2.737,2.739c-1.513,0-2.739-1.226-2.739-2.739S2.488,56.636,4,56.636
										C5.512,56.636,6.739,57.862,6.739,59.375"/>
									<path opacity="0.6" fill="none" stroke="#2E578C" stroke-width="2" enable-background="new    " d="M10.739,59.375
										c0,1.513-1.226,2.739-2.737,2.739c-1.513,0-2.739-1.226-2.739-2.739S6.488,56.636,8,56.636
										C9.512,56.636,10.739,57.862,10.739,59.375"/>
									<path opacity="0.6" fill="none" stroke="#2E578C" stroke-width="2" enable-background="new    " d="M14.739,59.906
										c0,1.513-1.226,2.739-2.737,2.739c-1.513,0-2.739-1.226-2.739-2.739c0-1.513,1.227-2.739,2.739-2.739
										C13.513,57.167,14.739,58.394,14.739,59.906"/>
									<path opacity="0.6" fill="none" stroke="#2E578C" stroke-width="2" enable-background="new    " d="M18.739,60.25
										c0,1.513-1.226,2.739-2.737,2.739c-1.513,0-2.739-1.226-2.739-2.739s1.227-2.739,2.739-2.739
										C17.513,57.511,18.739,58.737,18.739,60.25"/>
									<path opacity="0.6" fill="none" stroke="#2E578C" stroke-width="2" enable-background="new    " d="M22.739,61.031
										c0,1.513-1.226,2.739-2.737,2.739c-1.513,0-2.739-1.226-2.739-2.739c0-1.513,1.227-2.739,2.739-2.739
										C21.513,58.292,22.739,59.519,22.739,61.031"/>
									<path opacity="0.6" fill="none" stroke="#2E578C" stroke-width="2" enable-background="new    " d="M26.739,61.5
										c0,1.513-1.226,2.739-2.737,2.739c-1.513,0-2.739-1.226-2.739-2.739s1.227-2.739,2.739-2.739
										C25.513,58.761,26.739,59.987,26.739,61.5"/>
									<path opacity="0.6" fill="none" stroke="#2E578C" stroke-width="2" enable-background="new    " d="M30.739,62.063
										c0,1.513-1.226,2.739-2.737,2.739c-1.513,0-2.739-1.226-2.739-2.739s1.227-2.739,2.739-2.739
										C29.513,59.324,30.739,60.55,30.739,62.063"/>
									<path opacity="0.6" fill="none" stroke="#2E578C" stroke-width="2" enable-background="new    " d="M34.739,62.438
										c0,1.513-1.226,2.739-2.737,2.739c-1.513,0-2.739-1.226-2.739-2.739s1.227-2.739,2.739-2.739
										C33.513,59.699,34.739,60.925,34.739,62.438"/>
									<path opacity="0.6" fill="none" stroke="#2E578C" stroke-width="2" enable-background="new    " d="M38.739,62.813
										c0,1.513-1.226,2.739-2.737,2.739c-1.513,0-2.739-1.226-2.739-2.739s1.227-2.739,2.739-2.739
										C37.513,60.074,38.739,61.3,38.739,62.813"/>
									<path opacity="0.6" fill="none" stroke="#2E578C" stroke-width="2" enable-background="new    " d="M42.739,63.031
										c0,1.513-1.226,2.739-2.737,2.739c-1.513,0-2.739-1.226-2.739-2.739c0-1.513,1.227-2.739,2.739-2.739
										C41.513,60.292,42.739,61.519,42.739,63.031"/>
									<path opacity="0.6" fill="none" stroke="#2E578C" stroke-width="2" enable-background="new    " d="M46.739,63.5
										c0,1.513-1.226,2.739-2.737,2.739c-1.513,0-2.739-1.226-2.739-2.739s1.227-2.739,2.739-2.739
										C45.513,60.761,46.739,61.987,46.739,63.5"/>
									<path opacity="0.6" fill="none" stroke="#2E578C" stroke-width="2" enable-background="new    " d="M50.739,63.844
										c0,1.513-1.226,2.739-2.737,2.739c-1.513,0-2.739-1.226-2.739-2.739c0-1.513,1.227-2.739,2.739-2.739
										C49.513,61.105,50.739,62.331,50.739,63.844"/>
									<path opacity="0.6" fill="none" stroke="#2E578C" stroke-width="2" enable-background="new    " d="M54.739,64.125
										c0,1.513-1.226,2.739-2.737,2.739c-1.513,0-2.739-1.226-2.739-2.739s1.227-2.739,2.739-2.739
										C53.513,61.386,54.739,62.612,54.739,64.125"/>
									<path opacity="0.6" fill="none" stroke="#2E578C" stroke-width="2" enable-background="new    " d="M58.739,64.469
										c0,1.513-1.226,2.739-2.737,2.739c-1.513,0-2.739-1.226-2.739-2.739c0-1.513,1.226-2.739,2.738-2.739
										C57.512,61.73,58.739,62.956,58.739,64.469"/>
									<path opacity="0.6" fill="none" stroke="#2E578C" stroke-width="2" enable-background="new    " d="M62.739,64.844
										c0,1.513-1.226,2.739-2.737,2.739c-1.513,0-2.739-1.226-2.739-2.739c0-1.513,1.227-2.739,2.739-2.739
										C61.513,62.105,62.739,63.331,62.739,64.844"/>
									<path opacity="0.6" fill="none" stroke="#2E578C" stroke-width="2" enable-background="new    " d="M66.739,65.125
										c0,1.513-1.226,2.739-2.737,2.739c-1.513,0-2.739-1.226-2.739-2.739s1.227-2.739,2.739-2.739
										C65.513,62.386,66.739,63.612,66.739,65.125"/>
									<path opacity="0.6" fill="none" stroke="#2E578C" stroke-width="2" enable-background="new    " d="M70.739,65.5
										c0,1.513-1.226,2.739-2.737,2.739c-1.513,0-2.739-1.226-2.739-2.739s1.227-2.739,2.739-2.739
										C69.513,62.761,70.739,63.987,70.739,65.5"/>
									<path opacity="0.6" fill="none" stroke="#2E578C" stroke-width="2" enable-background="new    " d="M74.739,65.688
										c0,1.513-1.226,2.739-2.737,2.739c-1.513,0-2.739-1.226-2.739-2.739s1.227-2.739,2.739-2.739
										C73.513,62.949,74.739,64.175,74.739,65.688"/>
									<path opacity="0.6" fill="none" stroke="#2E578C" stroke-width="2" enable-background="new    " d="M78.739,65.844
										c0,1.513-1.226,2.739-2.737,2.739c-1.513,0-2.739-1.226-2.739-2.739c0-1.513,1.227-2.739,2.739-2.739
										C77.513,63.105,78.739,64.331,78.739,65.844"/>
									<path opacity="0.6" fill="none" stroke="#2E578C" stroke-width="2" enable-background="new    " d="M82.739,66.125
										c0,1.513-1.226,2.739-2.737,2.739c-1.513,0-2.739-1.226-2.739-2.739s1.227-2.739,2.739-2.739
										C81.513,63.386,82.739,64.612,82.739,66.125"/>
									<path opacity="0.6" fill="none" stroke="#2E578C" stroke-width="2" enable-background="new    " d="M86.739,66.438
										c0,1.513-1.226,2.739-2.737,2.739c-1.513,0-2.739-1.226-2.739-2.739s1.227-2.739,2.739-2.739
										C85.513,63.699,86.739,64.925,86.739,66.438"/>
									<path opacity="0.6" fill="none" stroke="#2E578C" stroke-width="2" enable-background="new    " d="M90.739,66.813
										c0,1.513-1.226,2.739-2.737,2.739c-1.513,0-2.739-1.226-2.739-2.739s1.227-2.739,2.739-2.739
										C89.513,64.074,90.739,65.3,90.739,66.813"/>
									<path opacity="0.6" fill="none" stroke="#2E578C" stroke-width="2" enable-background="new    " d="M94.739,67.031
										c0,1.513-1.226,2.739-2.737,2.739c-1.513,0-2.739-1.226-2.739-2.739c0-1.513,1.227-2.739,2.739-2.739
										C93.513,64.292,94.739,65.519,94.739,67.031"/>
									<path opacity="0.6" fill="none" stroke="#2E578C" stroke-width="2" enable-background="new    " d="M98.739,67.219
										c0,1.513-1.226,2.739-2.737,2.739c-1.513,0-2.739-1.226-2.739-2.739c0-1.513,1.226-2.739,2.738-2.739
										C97.512,64.48,98.739,65.706,98.739,67.219"/>
									<path opacity="0.6" fill="none" stroke="#2E578C" stroke-width="2" enable-background="new    " d="M102.739,67.188
										c0,1.513-1.226,2.739-2.737,2.739c-1.513,0-2.739-1.226-2.739-2.739s1.227-2.739,2.739-2.739
										C101.513,64.449,102.739,65.675,102.739,67.188"/>
									<path opacity="0.6" fill="none" stroke="#2E578C" stroke-width="2" enable-background="new    " d="M106.739,67.25
										c0,1.513-1.226,2.739-2.737,2.739c-1.513,0-2.739-1.226-2.739-2.739s1.227-2.739,2.739-2.739
										C105.513,64.511,106.739,65.737,106.739,67.25"/>
									<path opacity="0.6" fill="none" stroke="#2E578C" stroke-width="2" enable-background="new    " d="M110.739,67.031
										c0,1.513-1.226,2.739-2.737,2.739c-1.513,0-2.739-1.226-2.739-2.739c0-1.513,1.227-2.739,2.739-2.739
										C109.513,64.292,110.739,65.519,110.739,67.031"/>
									<path opacity="0.6" fill="none" stroke="#2E578C" stroke-width="2" enable-background="new    " d="M114.739,66.688
										c0,1.513-1.226,2.739-2.737,2.739c-1.513,0-2.739-1.226-2.739-2.739s1.227-2.739,2.739-2.739
										C113.513,63.949,114.739,65.175,114.739,66.688"/>
									<path opacity="0.6" fill="none" stroke="#2E578C" stroke-width="2" enable-background="new    " d="M118.739,66.375
										c0,1.513-1.226,2.739-2.737,2.739c-1.513,0-2.739-1.226-2.739-2.739s1.227-2.739,2.739-2.739
										C117.513,63.636,118.739,64.862,118.739,66.375"/>
									<path opacity="0.6" fill="none" stroke="#2E578C" stroke-width="2" enable-background="new    " d="M122.739,65.313
										c0,1.513-1.226,2.739-2.737,2.739c-1.513,0-2.739-1.226-2.739-2.739s1.227-2.739,2.739-2.739
										C121.513,62.574,122.739,63.8,122.739,65.313"/>
									<path opacity="0.6" fill="none" stroke="#2E578C" stroke-width="2" enable-background="new    " d="M126.739,64.313
										c0,1.513-1.226,2.739-2.737,2.739c-1.513,0-2.739-1.226-2.739-2.739s1.227-2.739,2.739-2.739
										C125.513,61.574,126.739,62.8,126.739,64.313"/>
									<path opacity="0.6" fill="none" stroke="#2E578C" stroke-width="2" enable-background="new    " d="M130.739,63.406
										c0,1.513-1.226,2.739-2.737,2.739c-1.513,0-2.739-1.226-2.739-2.739c0-1.513,1.227-2.739,2.739-2.739
										C129.513,60.667,130.739,61.894,130.739,63.406"/>
									<path opacity="0.6" fill="none" stroke="#2E578C" stroke-width="2" enable-background="new    " d="M134.739,62.031
										c0,1.513-1.226,2.739-2.737,2.739c-1.513,0-2.739-1.226-2.739-2.739c0-1.513,1.227-2.739,2.739-2.739
										C133.513,59.292,134.739,60.519,134.739,62.031"/>
									<path opacity="0.6" fill="none" stroke="#2E578C" stroke-width="2" enable-background="new    " d="M138.739,59.813
										c0,1.513-1.226,2.739-2.737,2.739c-1.513,0-2.739-1.226-2.739-2.739s1.227-2.739,2.739-2.739
										C137.513,57.074,138.739,58.3,138.739,59.813"/>
									<path opacity="0.6" fill="none" stroke="#2E578C" stroke-width="2" enable-background="new    " d="M142.739,58.531
										c0,1.513-1.226,2.739-2.737,2.739c-1.513,0-2.739-1.226-2.739-2.739c0-1.513,1.227-2.739,2.739-2.739
										C141.513,55.792,142.739,57.019,142.739,58.531"/>
									<path opacity="0.6" fill="none" stroke="#2E578C" stroke-width="2" enable-background="new    " d="M146.739,57.219
										c0,1.513-1.226,2.739-2.737,2.739c-1.513,0-2.739-1.226-2.739-2.739c0-1.513,1.227-2.739,2.739-2.739
										C145.513,54.48,146.739,55.706,146.739,57.219"/>
									<path opacity="0.6" fill="none" stroke="#2E578C" stroke-width="2" enable-background="new    " d="M150.739,55.531
										c0,1.513-1.226,2.739-2.737,2.739c-1.513,0-2.739-1.226-2.739-2.739c0-1.513,1.227-2.739,2.739-2.739
										C149.513,52.792,150.739,54.019,150.739,55.531"/>
									<path opacity="0.6" fill="none" stroke="#2E578C" stroke-width="2" enable-background="new    " d="M154.739,53.688
										c0,1.513-1.226,2.739-2.737,2.739c-1.513,0-2.739-1.226-2.739-2.739s1.227-2.739,2.739-2.739
										C153.513,50.949,154.739,52.175,154.739,53.688"/>
									<path opacity="0.6" fill="none" stroke="#2E578C" stroke-width="2" enable-background="new    " d="M158.739,51.969
										c0,1.513-1.226,2.739-2.737,2.739c-1.513,0-2.739-1.226-2.739-2.739c0-1.513,1.227-2.739,2.739-2.739
										C157.513,49.23,158.739,50.456,158.739,51.969"/>
									<path opacity="0.6" fill="none" stroke="#2E578C" stroke-width="2" enable-background="new    " d="M162.739,50.656
										c0,1.513-1.226,2.739-2.737,2.739c-1.513,0-2.739-1.226-2.739-2.739c0-1.513,1.227-2.739,2.739-2.739
										C161.513,47.917,162.739,49.144,162.739,50.656"/>
									<path opacity="0.6" fill="none" stroke="#2E578C" stroke-width="2" enable-background="new    " d="M166.739,48.875
										c0,1.513-1.226,2.739-2.737,2.739c-1.513,0-2.739-1.226-2.739-2.739s1.227-2.739,2.739-2.739
										C165.513,46.136,166.739,47.362,166.739,48.875"/>
									<path opacity="0.6" fill="none" stroke="#2E578C" stroke-width="2" enable-background="new    " d="M170.739,47.813
										c0,1.513-1.226,2.739-2.737,2.739c-1.513,0-2.739-1.226-2.739-2.739s1.227-2.739,2.739-2.739
										C169.513,45.074,170.739,46.3,170.739,47.813"/>
									<path opacity="0.6" fill="none" stroke="#2E578C" stroke-width="2" enable-background="new    " d="M174.739,45.719
										c0,1.513-1.226,2.739-2.737,2.739c-1.513,0-2.739-1.226-2.739-2.739c0-1.513,1.227-2.739,2.739-2.739
										C173.513,42.98,174.739,44.206,174.739,45.719"/>
									<path opacity="0.6" fill="none" stroke="#2E578C" stroke-width="2" enable-background="new    " d="M178.739,44.625
										c0,1.513-1.226,2.739-2.737,2.739c-1.513,0-2.739-1.226-2.739-2.739s1.227-2.739,2.739-2.739
										C177.513,41.886,178.739,43.112,178.739,44.625"/>
									<path opacity="0.6" fill="none" stroke="#2E578C" stroke-width="2" enable-background="new    " d="M182.739,42.808
										c0,1.513-1.226,2.739-2.737,2.739c-1.513,0-2.739-1.226-2.739-2.739c0-1.512,1.227-2.738,2.739-2.738
										C181.513,40.07,182.739,41.295,182.739,42.808"/>
									<path opacity="0.6" fill="none" stroke="#2E578C" stroke-width="2" enable-background="new    " d="M186.739,42.211
										c0,1.513-1.226,2.739-2.737,2.739c-1.513,0-2.739-1.226-2.739-2.739c0-1.512,1.227-2.738,2.739-2.738
										C185.513,39.473,186.739,40.699,186.739,42.211"/>
									<path opacity="0.6" fill="none" stroke="#2E578C" stroke-width="2" enable-background="new    " d="M190.739,40.625
										c0,1.513-1.226,2.739-2.737,2.739c-1.513,0-2.739-1.226-2.739-2.739s1.227-2.739,2.739-2.739
										C189.513,37.886,190.739,39.112,190.739,40.625"/>
									<path opacity="0.6" fill="none" stroke="#2E578C" stroke-width="2" enable-background="new    " d="M194.739,39.962
										c0,1.513-1.226,2.739-2.737,2.739c-1.513,0-2.739-1.226-2.739-2.739c0-1.512,1.227-2.738,2.739-2.738
										C193.513,37.224,194.739,38.45,194.739,39.962"/>
									<path opacity="0.6" fill="none" stroke="#2E578C" stroke-width="2" enable-background="new    " d="M198.739,38.536
										c0,1.513-1.226,2.739-2.737,2.739c-1.513,0-2.739-1.226-2.739-2.739c0-1.512,1.227-2.738,2.739-2.738
										C197.513,35.798,198.739,37.024,198.739,38.536"/>
									<path opacity="0.6" fill="none" stroke="#2E578C" stroke-width="2" enable-background="new    " d="M202.739,38.216
										c0,1.512-1.226,2.738-2.737,2.738c-1.513,0-2.739-1.226-2.739-2.738c0-1.513,1.227-2.739,2.739-2.739
										C201.513,35.477,202.739,36.704,202.739,38.216"/>
									<path opacity="0.6" fill="none" stroke="#2E578C" stroke-width="2" enable-background="new    " d="M206.739,36.861
										c0,1.513-1.226,2.739-2.737,2.739c-1.513,0-2.739-1.226-2.739-2.739c0-1.512,1.227-2.738,2.739-2.738
										C205.513,34.123,206.739,35.349,206.739,36.861"/>
									<path opacity="0.6" fill="none" stroke="#2E578C" stroke-width="2" enable-background="new    " d="M210.739,36.607
										c0,1.513-1.226,2.739-2.737,2.739c-1.513,0-2.739-1.226-2.739-2.739c0-1.512,1.227-2.738,2.739-2.738
										C209.513,33.869,210.739,35.095,210.739,36.607"/>
									<path opacity="0.6" fill="none" stroke="#2E578C" stroke-width="2" enable-background="new    " d="M214.739,36.199
										c0,1.513-1.226,2.739-2.737,2.739c-1.513,0-2.739-1.226-2.739-2.739c0-1.512,1.227-2.738,2.739-2.738
										C213.513,33.461,214.739,34.687,214.739,36.199"/>
									<path opacity="0.6" fill="none" stroke="#2E578C" stroke-width="2" enable-background="new    " d="M218.739,36.029
										c0,1.513-1.226,2.739-2.737,2.739c-1.513,0-2.739-1.226-2.739-2.739c0-1.512,1.227-2.738,2.739-2.738
										C217.513,33.291,218.739,34.517,218.739,36.029"/>
									<path opacity="0.6" fill="none" stroke="#2E578C" stroke-width="2" enable-background="new    " d="M222.739,35.781
										c0,1.513-1.226,2.739-2.737,2.739c-1.513,0-2.739-1.226-2.739-2.739c0-1.513,1.227-2.739,2.739-2.739
										C221.513,33.042,222.739,34.269,222.739,35.781"/>
									<path opacity="0.6" fill="none" stroke="#2E578C" stroke-width="2" enable-background="new    " d="M226.739,34.919
										c0,1.512-1.226,2.739-2.737,2.739c-1.513,0-2.739-1.227-2.739-2.739c0-1.513,1.227-2.739,2.739-2.739
										C225.513,32.18,226.739,33.407,226.739,34.919"/>
									<path opacity="0.6" fill="none" stroke="#2E578C" stroke-width="2" enable-background="new    " d="M230.739,34.071
										c0,1.512-1.226,2.738-2.737,2.738c-1.513,0-2.739-1.226-2.739-2.738c0-1.513,1.227-2.739,2.739-2.739
										C229.513,31.332,230.739,32.559,230.739,34.071"/>
									<path opacity="0.6" fill="none" stroke="#2E578C" stroke-width="2" enable-background="new    " d="M234.739,34.107
										c0,1.513-1.226,2.739-2.737,2.739c-1.513,0-2.739-1.226-2.739-2.739c0-1.512,1.227-2.738,2.739-2.738
										C233.513,31.369,234.739,32.595,234.739,34.107"/>
									<path opacity="0.6" fill="none" stroke="#2E578C" stroke-width="2" enable-background="new    " d="M238.739,34.006
										c0,1.513-1.226,2.739-2.737,2.739c-1.513,0-2.739-1.226-2.739-2.739c0-1.513,1.227-2.738,2.739-2.738
										C237.513,31.268,238.739,32.493,238.739,34.006"/>
									<path opacity="0.6" fill="none" stroke="#2E578C" stroke-width="2" enable-background="new    " d="M242.739,33.709
										c0,1.513-1.226,2.739-2.737,2.739c-1.513,0-2.739-1.226-2.739-2.739s1.227-2.739,2.739-2.739
										C241.513,30.97,242.739,32.196,242.739,33.709"/>
									<path opacity="0.6" fill="none" stroke="#2E578C" stroke-width="2" enable-background="new    " d="M246.739,34.664
										c0,1.512-1.226,2.738-2.737,2.738c-1.513,0-2.739-1.226-2.739-2.738c0-1.513,1.227-2.739,2.739-2.739
										C245.513,31.925,246.739,33.151,246.739,34.664"/>
									<path opacity="0.6" fill="none" stroke="#2E578C" stroke-width="2" enable-background="new    " d="M250.739,33.684
										c0,1.513-1.226,2.739-2.737,2.739c-1.513,0-2.739-1.226-2.739-2.739s1.227-2.738,2.739-2.738
										C249.513,30.946,250.739,32.171,250.739,33.684"/>
									<path opacity="0.6" fill="none" stroke="#2E578C" stroke-width="2" enable-background="new    " d="M254.739,34.234
										c0,1.512-1.226,2.738-2.737,2.738c-1.513,0-2.739-1.226-2.739-2.738c0-1.513,1.227-2.739,2.739-2.739
										C253.513,31.495,254.739,32.722,254.739,34.234"/>
									<path opacity="0.6" fill="none" stroke="#2E578C" stroke-width="2" enable-background="new    " d="M258.739,33.178
										c0,1.512-1.226,2.738-2.737,2.738c-1.513,0-2.739-1.226-2.739-2.738c0-1.513,1.227-2.739,2.739-2.739
										C257.513,30.439,258.739,31.665,258.739,33.178"/>
									<path opacity="0.6" fill="none" stroke="#2E578C" stroke-width="2" enable-background="new    " d="M262.739,33.98
										c0,1.513-1.226,2.739-2.737,2.739c-1.513,0-2.739-1.226-2.739-2.739c0-1.512,1.227-2.738,2.739-2.738
										C261.513,31.242,262.739,32.468,262.739,33.98"/>
									<path opacity="0.6" fill="none" stroke="#2E578C" stroke-width="2" enable-background="new    " d="M266.739,33.063
										c0,1.513-1.226,2.739-2.737,2.739c-1.513,0-2.739-1.226-2.739-2.739s1.227-2.739,2.739-2.739
										C265.513,30.324,266.739,31.55,266.739,33.063"/>
									<path opacity="0.6" fill="none" stroke="#2E578C" stroke-width="2" enable-background="new    " d="M270.739,33.763
										c0,1.513-1.227,2.739-2.737,2.739c-1.514,0-2.739-1.226-2.739-2.739c0-1.512,1.227-2.738,2.739-2.738
										C269.512,31.024,270.739,32.25,270.739,33.763"/>
									<path opacity="0.6" fill="none" stroke="#2E578C" stroke-width="2" enable-background="new    " d="M274.739,32.222
										c0,1.513-1.227,2.739-2.737,2.739c-1.514,0-2.739-1.226-2.739-2.739c0-1.512,1.227-2.739,2.739-2.739
										C273.512,29.483,274.739,30.71,274.739,32.222"/>
									<path opacity="0.6" fill="none" stroke="#2E578C" stroke-width="2" enable-background="new    " d="M278.739,32.813
										c0,1.513-1.227,2.739-2.737,2.739c-1.514,0-2.739-1.226-2.739-2.739s1.227-2.739,2.739-2.739
										C277.512,30.074,278.739,31.3,278.739,32.813"/>
									<path opacity="0.6" fill="none" stroke="#2E578C" stroke-width="2" enable-background="new    " d="M282.739,32.188
										c0,1.513-1.227,2.739-2.737,2.739c-1.514,0-2.739-1.226-2.739-2.739s1.227-2.739,2.739-2.739
										C281.512,29.449,282.739,30.675,282.739,32.188"/>
									<path opacity="0.6" fill="none" stroke="#2E578C" stroke-width="2" enable-background="new    " d="M286.739,32.977
										c0,1.512-1.227,2.739-2.737,2.739c-1.514,0-2.739-1.227-2.739-2.739c0-1.513,1.227-2.739,2.739-2.739
										C285.512,30.238,286.739,31.464,286.739,32.977"/>
									<path opacity="0.6" fill="none" stroke="#2E578C" stroke-width="2" enable-background="new    " d="M290.739,31.964
										c0,1.512-1.227,2.739-2.737,2.739c-1.514,0-2.739-1.227-2.739-2.739c0-1.513,1.227-2.739,2.739-2.739
										C289.512,29.226,290.739,30.452,290.739,31.964"/>
									<path opacity="0.6" fill="none" stroke="#2E578C" stroke-width="2" enable-background="new    " d="M294.739,32.692
										c0,1.513-1.227,2.738-2.737,2.738c-1.514,0-2.739-1.226-2.739-2.738c0-1.512,1.227-2.739,2.739-2.739
										C293.512,29.954,294.739,31.18,294.739,32.692"/>
									<path opacity="0.6" fill="none" stroke="#2E578C" stroke-width="2" enable-background="new    " d="M298.739,31.031
										c0,1.512-1.227,2.739-2.737,2.739c-1.514,0-2.739-1.227-2.739-2.739c0-1.513,1.227-2.739,2.739-2.739
										C297.512,28.292,298.739,29.518,298.739,31.031"/>
									<path opacity="0.6" fill="none" stroke="#2E578C" stroke-width="2" enable-background="new    " d="M302.739,32.108
										c0,1.512-1.227,2.739-2.737,2.739c-1.514,0-2.739-1.227-2.739-2.739c0-1.513,1.227-2.739,2.739-2.739
										C301.512,29.369,302.739,30.595,302.739,32.108"/>
									<path opacity="0.6" fill="none" stroke="#2E578C" stroke-width="2" enable-background="new    " d="M306.739,29.573
										c0,1.513-1.227,2.738-2.737,2.738c-1.514,0-2.739-1.226-2.739-2.738c0-1.512,1.227-2.739,2.739-2.739
										C305.512,26.834,306.739,28.061,306.739,29.573"/>
									<path opacity="0.6" fill="none" stroke="#2E578C" stroke-width="2" enable-background="new    " d="M310.739,30.236
										c0,1.513-1.227,2.739-2.737,2.739c-1.514,0-2.739-1.226-2.739-2.739c0-1.512,1.227-2.738,2.739-2.738
										C309.512,27.498,310.739,28.724,310.739,30.236"/>
									<path opacity="0.6" fill="none" stroke="#2E578C" stroke-width="2" enable-background="new    " d="M314.739,29.095
										c0,1.513-1.227,2.739-2.737,2.739c-1.514,0-2.739-1.226-2.739-2.739c0-1.512,1.227-2.738,2.739-2.738
										C313.512,26.356,314.739,27.583,314.739,29.095"/>
									<path opacity="0.6" fill="none" stroke="#2E578C" stroke-width="2" enable-background="new    " d="M318.739,29.5
										c0,1.513-1.227,2.739-2.737,2.739c-1.514,0-2.739-1.226-2.739-2.739s1.227-2.739,2.739-2.739
										C317.512,26.761,318.739,27.987,318.739,29.5"/>
									<path opacity="0.6" fill="none" stroke="#2E578C" stroke-width="2" enable-background="new    " d="M322.739,30.06
										c0,1.513-1.227,2.738-2.737,2.738c-1.514,0-2.739-1.226-2.739-2.738s1.227-2.739,2.739-2.739
										C321.512,27.321,322.739,28.547,322.739,30.06"/>
									<path opacity="0.6" fill="none" stroke="#2E578C" stroke-width="2" enable-background="new    " d="M326.739,30.357
										c0,1.513-1.227,2.739-2.737,2.739c-1.514,0-2.739-1.226-2.739-2.739c0-1.512,1.227-2.738,2.739-2.738
										C325.512,27.619,326.739,28.845,326.739,30.357"/>
									<path opacity="0.6" fill="none" stroke="#2E578C" stroke-width="2" enable-background="new    " d="M330.739,32.143
										c0,1.512-1.227,2.738-2.737,2.738c-1.514,0-2.739-1.226-2.739-2.738c0-1.513,1.227-2.739,2.739-2.739
										C329.512,29.404,330.739,30.63,330.739,32.143"/>
									<path opacity="0.6" fill="none" stroke="#2E578C" stroke-width="2" enable-background="new    " d="M334.739,31.25
										c0,1.513-1.227,2.739-2.737,2.739c-1.514,0-2.739-1.226-2.739-2.739s1.227-2.739,2.739-2.739
										C333.512,28.511,334.739,29.737,334.739,31.25"/>
									<path opacity="0.6" fill="none" stroke="#2E578C" stroke-width="2" enable-background="new    " d="M338.739,31.944
										c0,1.513-1.227,2.739-2.737,2.739c-1.514,0-2.739-1.226-2.739-2.739c0-1.512,1.227-2.738,2.739-2.738
										C337.512,29.206,338.739,30.432,338.739,31.944"/>
									<path opacity="0.6" fill="none" stroke="#2E578C" stroke-width="2" enable-background="new    " d="M342.739,34.821
										c0,1.513-1.227,2.739-2.737,2.739c-1.514,0-2.739-1.226-2.739-2.739c0-1.512,1.227-2.738,2.739-2.738
										C341.512,32.083,342.739,33.309,342.739,34.821"/>
									<path opacity="0.6" fill="none" stroke="#2E578C" stroke-width="2" enable-background="new    " d="M346.739,34.375
										c0,1.513-1.227,2.739-2.737,2.739c-1.514,0-2.739-1.226-2.739-2.739s1.227-2.739,2.739-2.739
										C345.512,31.636,346.739,32.862,346.739,34.375"/>
									<path opacity="0.6" fill="none" stroke="#2E578C" stroke-width="2" enable-background="new    " d="M350.739,37.5
										c0,1.513-1.227,2.739-2.737,2.739c-1.514,0-2.739-1.226-2.739-2.739s1.227-2.739,2.739-2.739
										C349.512,34.761,350.739,35.987,350.739,37.5"/>
									<path opacity="0.6" fill="none" stroke="#2E578C" stroke-width="2" enable-background="new    " d="M354.739,25
										c0,1.513-1.227,2.739-2.737,2.739c-1.514,0-2.739-1.226-2.739-2.739s1.227-2.739,2.739-2.739
										C353.512,22.261,354.739,23.487,354.739,25"/>
									<path opacity="0.6" fill="none" stroke="#2E578C" stroke-width="2" enable-background="new    " d="M358.739,31.25
										c0,1.513-1.227,2.739-2.737,2.739c-1.514,0-2.739-1.226-2.739-2.739s1.227-2.739,2.739-2.739
										C357.512,28.511,358.739,29.737,358.739,31.25"/>
									<path opacity="0.6" fill="none" stroke="#2E578C" stroke-width="2" enable-background="new    " d="M362.739,25
										c0,1.513-1.227,2.739-2.737,2.739c-1.514,0-2.739-1.226-2.739-2.739s1.227-2.739,2.739-2.739
										C361.512,22.261,362.739,23.487,362.739,25"/>
									<path opacity="0.6" fill="none" stroke="#2E578C" stroke-width="2" enable-background="new    " d="M366.739,31.25
										c0,1.513-1.227,2.739-2.737,2.739c-1.514,0-2.739-1.226-2.739-2.739s1.227-2.739,2.739-2.739
										C365.512,28.511,366.739,29.737,366.739,31.25"/>
								</g>
								<g>
									<path opacity="0.8" fill="none" stroke="#E7A13D" stroke-width="2" enable-background="new    " d="M0,56.25L4,50l4-6.25h4
										h4h4L24,50l4,6.25l4,6.25l4,6.25l4-6.25l4-6.25l4,6.25l4-6.25L56,50l4-6.25h4h4L72,50l4-6.25h4h4h4L92,50l4,6.25l4-6.25
										l4,6.25l4-6.25l4-6.25l4,6.25l4,6.25l4,6.25l4,6.25l4-6.25l4-6.25l4-6.25l4,6.25l4-6.25l4,6.25l4-6.25l4,6.25l4,6.25
										l4-6.25l4,6.25l4-6.25l4-6.25l4,6.25l4-6.25l4,6.25l4-6.25l4-6.25h4h4h4l4,6.25l4-6.25l4,6.25l4-6.25h4h4h4h4"/>
								</g>
								<g>
									<g transform="translate(0,0)">
										<path fill="none" d="M0,0h400v300H0V0z"/>
										<g>
											<g>
												<path opacity="0.3" fill="none" stroke="#008000" stroke-width="2" enable-background="new    " d="M0,293.75h4h4h4h4h4
													h4h4h4h4h4h4h4h4h4h4h4h4h4h4h4h4h4h4h4h4h4h4h4h4h4h4h4h4h4h4h4h4h4h4h4h4h4h4h4h4h4h4h4h4h4h4h4h4h4h4h4h4h4h4h4h4h4
													h4h4h4h4h4h4h4h4h4h4h4h4h4h4h4h4h4h4h4h4h4h4h4h4h4h4h4h4h4"/>
											</g>
										</g>
										<path display="none" fill="none" stroke="#008000" stroke-width="2" d="M0,0"/>
									</g>
									<g transform="translate(0,0)">
										<path fill="none" d="M0,0h400v300H0V0z"/>
										<g>
											<g>
												<path opacity="0.3" fill="none" stroke="#FF0000" stroke-width="2" enable-background="new    " d="M0,43.75h4h4h4h4h4
													h4h4h4h4h4h4h4h4h4h4h4h4h4h4h4h4h4h4h4h4h4h4h4h4h4h4h4h4h4h4h4h4h4h4h4h4h4h4h4h4h4h4h4h4h4h4h4h4h4h4h4h4h4h4h4h4h4
													h4h4h4h4h4h4h4h4h4h4h4h4h4h4h4h4h4h4h4h4h4h4h4h4h4h4h4h4h4"/>
											</g>
										</g>
										<path display="none" fill="none" stroke="#FF0000" stroke-width="2" d="M0,0"/>
									</g>
									<g transform="translate(0,0)">
										<path fill="none" d="M0,0h400v300H0V0z"/>
										<g>
											<g>
												<path opacity="0.3" fill="none" stroke="#FF0000" stroke-width="2" enable-background="new    " d="M0,0h4h4h4h4h4h4h4
													h4h4h4h4h4h4h4h4h4h4h4h4h4h4h4h4h4h4h4h4h4h4h4h4h4h4h4h4h4h4h4h4h4h4h4h4h4h4h4h4h4h4h4h4h4h4h4h4h4h4h4h4h4h4h4h4h4
													h4h4h4h4h4h4h4h4h4h4h4h4h4h4h4h4h4h4h4h4h4h4h4h4h4h4h4"/>
											</g>
										</g>
										<path display="none" fill="none" stroke="#FF0000" stroke-width="2" d="M0,0"/>
									</g>
								</g>
								<g>
									<g transform="translate(200,-22)">
										<path fill="none" d="M0,0L0,0L0,0L0,0z"/>
										<g>
											<g>
												<text transform="matrix(1 0 0 1 -167.613 10)" font-family="'Arial-BoldMT'" font-size="13">Grafico estilo Heymann et al (2014) para Compradores</text>
											</g>
										</g>
										<path display="none" d="M0,0"/>
									</g>
								</g>
							</g>
							<path display="none" d="M0,0"/>
						</g>
					</g>
					<g>
						<g transform="translate(0,360)">
							<path fill="none" stroke="#DDDDDD" d="M0.5,0.5h400v50H0.5V0.5z"/>
							<g>
								<g>
									<g transform="translate(0.5,50.5)">
										<path fill="none" d="M0,0L0,0L0,0L0,0z"/>
										<g>
											<g>
												<line fill="none" stroke="#888888" x1="220" y1="0" x2="220" y2="5"/>
												<line fill="none" stroke="#888888" x1="240" y1="0" x2="240" y2="5"/>
												<line fill="none" stroke="#888888" x1="260" y1="0" x2="260" y2="5"/>
												<line fill="none" stroke="#888888" x1="280" y1="0" x2="280" y2="5"/>
												<line fill="none" stroke="#888888" x1="300" y1="0" x2="300" y2="5"/>
												<line fill="none" stroke="#888888" x1="320" y1="0" x2="320" y2="5"/>
												<line fill="none" stroke="#888888" x1="340" y1="0" x2="340" y2="5"/>
												<line fill="none" stroke="#888888" x1="360" y1="0" x2="360" y2="5"/>
												<line fill="none" stroke="#888888" x1="380" y1="0" x2="380" y2="5"/>
											</g>
											<g>
												<text transform="matrix(1 0 0 1 214.4377 15)" font-family="'ArialMT'" font-size="10">55</text>
												<text transform="matrix(1 0 0 1 234.4377 15)" font-family="'ArialMT'" font-size="10">60</text>
												<text transform="matrix(1 0 0 1 254.4377 15)" font-family="'ArialMT'" font-size="10">65</text>
												<text transform="matrix(1 0 0 1 274.4377 15)" font-family="'ArialMT'" font-size="10">70</text>
												<text transform="matrix(1 0 0 1 294.4377 15)" font-family="'ArialMT'" font-size="10">75</text>
												<text transform="matrix(1 0 0 1 314.4377 15)" font-family="'ArialMT'" font-size="10">80</text>
												<text transform="matrix(1 0 0 1 334.4377 15)" font-family="'ArialMT'" font-size="10">85</text>
												<text transform="matrix(1 0 0 1 354.4377 15)" font-family="'ArialMT'" font-size="10">90</text>
												<text transform="matrix(1 0 0 1 374.4377 15)" font-family="'ArialMT'" font-size="10">95</text>
											</g>
											<g>
												<line fill="none" stroke="#888888" x1="0" y1="0" x2="400" y2="0"/>
											</g>
											<g>
												<text transform="matrix(1 0 0 1 142.8406 30)" font-family="'Arial-BoldMT'" font-size="11">Estabilidad alcanzada</text>
											</g>
										</g>
										<path display="none" d="M0,0"/>
									</g>
								</g>
								<g>
									<path fill="#4C78A8" d="M281,12.857h19V50h-19V12.857z"/>
									<path fill="#4C78A8" d="M261,37.143h19V50h-19V37.143z"/>
									<path fill="#4C78A8" d="M301,4.285h19V50h-19V4.285z"/>
									<path fill="#4C78A8" d="M321,27.143h19V50h-19V27.143z"/>
									<path fill="#4C78A8" d="M241,42.857h19V50h-19V42.857z"/>
									<path fill="#4C78A8" d="M341,38.571h19V50h-19V38.571z"/>
									<path fill="#4C78A8" d="M361,48.571h19V50h-19V48.571z"/>
									<path fill="#4C78A8" d="M221,45.714h19V50h-19V45.714z"/>
								</g>
								<g>
									<text transform="matrix(1 0 0 1 283.8821 11.8574)" font-family="'ArialMT'" font-size="11">26</text>
									<text transform="matrix(1 0 0 1 266.9407 36.1426)" font-family="'ArialMT'" font-size="11">9</text>
									<text transform="matrix(1 0 0 1 303.8821 3.2861)" font-family="'ArialMT'" font-size="11">32</text>
									<text transform="matrix(1 0 0 1 323.8821 26.1426)" font-family="'ArialMT'" font-size="11">16</text>
									<text transform="matrix(1 0 0 1 246.9407 41.8574)" font-family="'ArialMT'" font-size="11">5</text>
									<text transform="matrix(1 0 0 1 346.9407 37.5713)" font-family="'ArialMT'" font-size="11">8</text>
									<text transform="matrix(1 0 0 1 366.9407 47.5713)" font-family="'ArialMT'" font-size="11">1</text>
									<text transform="matrix(1 0 0 1 226.9407 44.7139)" font-family="'ArialMT'" font-size="11">3</text>
								</g>
							</g>
							<path display="none" d="M0,0"/>
						</g>
					</g>
					<g>
						<g transform="translate(419,0)">
							<path fill="none" d="M0,0h62v40H0V0z"/>
							<g>
								<g>
									<g transform="translate(0,16)">
										<path fill="none" d="M0,0L0,0L0,0L0,0z"/>
										<g>
											<g>
												<g transform="translate(0,0)">
													<path fill="none" d="M0,0h22.67v11H0V0z"/>
													<g>
														<g>
															<path opacity="0.3" fill="none" stroke="#008000" stroke-width="1.5" enable-background="new    " d="M1,6h10"/>
														</g>
														<g>
															<text transform="matrix(1 0 0 1 16.0002 9)" font-family="'ArialMT'" font-size="10">S</text>
														</g>
													</g>
													<path display="none" d="M0,0"/>
												</g>
												<g transform="translate(0,13)">
													<path fill="none" d="M0,0h22.67v11H0V0z"/>
													<g>
														<g>
															<path opacity="0.3" fill="none" stroke="#FF0000" stroke-width="1.5" enable-background="new    " d="M1,6h10"/>
														</g>
														<g>
															<text transform="matrix(1 0 0 1 16.0002 9)" font-family="'ArialMT'" font-size="10">B</text>
														</g>
													</g>
													<path display="none" d="M0,0"/>
												</g>
											</g>
										</g>
										<path display="none" d="M0,0"/>
									</g>
								</g>
								<g>
									<text transform="matrix(1 0 0 1 2.441406e-004 9)" font-family="'Arial-BoldMT'" font-size="11">Indicadores</text>
								</g>
							</g>
							<path display="none" d="M0,0"/>
						</g>
					</g>
				</g>
				<path display="none" d="M0,0"/>
			</g>
		</g>
	</g>
</g>
<g id="Indicadores">
	<path opacity="0.6" fill="none" stroke="#2E578C" stroke-width="2" enable-background="new    " d="M462.262,104.739
		c0-1.513,1.226-2.739,2.738-2.739c1.512,0,2.738,1.226,2.738,2.739c0,1.513-1.227,2.739-2.738,2.739
		C463.488,107.478,462.262,106.251,462.262,104.739"/>
	<path opacity="0.8" fill="none" stroke="#BC2D30" stroke-width="2" enable-background="new    " d="M460,76h10"/>
	<path opacity="0.7" fill="none" stroke="#6F3D79" stroke-width="2" enable-background="new    " d="M460,89h10"/>
	<path opacity="0.8" fill="none" stroke="#E7A13D" stroke-width="2" enable-background="new    " d="M470,117.739h-10"/>
	<g>
		<text transform="matrix(1 0 0 1 475.0002 79)" font-family="'ArialMT'" font-size="10">Max</text>
	</g>
	<g>
		<text transform="matrix(1 0 0 1 475.0002 91.5)" font-family="'ArialMT'" font-size="10">Min</text>
	</g>
	<g>
		<text transform="matrix(1 0 0 1 475.0002 107.4775)" font-family="'ArialMT'" font-size="10">Avg</text>
	</g>
	<g>
		<text transform="matrix(1 0 0 1 475.0002 120.9775)" font-family="'ArialMT'" font-size="10">Sample</text>
	</g>
</g>
<path opacity="0.6" fill="none" stroke="#2E578C" stroke-width="2" enable-background="new    " d="M462.262,104.739
	c0-1.513,1.226-2.739,2.738-2.739s2.739,1.226,2.739,2.739s-1.227,2.739-2.739,2.739S462.262,106.251,462.262,104.739"/>
<path opacity="0.8" fill="none" stroke="#BC2D30" stroke-width="2" enable-background="new    " d="M460,76h10"/>
<path opacity="0.7" fill="none" stroke="#6F3D79" stroke-width="2" enable-background="new    " d="M460,89h10"/>
<path opacity="0.8" fill="none" stroke="#E7A13D" stroke-width="2" enable-background="new    " d="M470,117.739h-10"/>
<g>
	<text transform="matrix(1 0 0 1 475.0002 79)" font-family="'ArialMT'" font-size="10">Max</text>
</g>
<g>
	<text transform="matrix(1 0 0 1 475.0002 91.5)" font-family="'ArialMT'" font-size="10">Min</text>
</g>
<g>
	<text transform="matrix(1 0 0 1 475.0002 107.4775)" font-family="'ArialMT'" font-size="10">Avg</text>
</g>
<g>
	<text transform="matrix(1 0 0 1 475.0002 120.9775)" font-family="'ArialMT'" font-size="10">Sample</text>
</g>
<g>
	<g transform="translate(419,0)">
		<path fill="none" d="M40,28h62v40H40V28z"/>
		<g>
			<g>
				<g transform="translate(0,16)">
					<path fill="none" d="M40,28L40,28L40,28L40,28z"/>
					<g>
						<g>
							<g transform="translate(0,0)">
								<path fill="none" d="M40,28h22.67v11H40V28z"/>
								<g>
									<g>
										<path opacity="0.3" fill="none" stroke="#008000" stroke-width="1.5" enable-background="new    " d="M51,34"/>
										<path opacity="0.3" fill="none" stroke="#008000" stroke-width="1.5" enable-background="new    " d="M41,34"/>
									</g>
								</g>
								<path display="none" d="M40,28"/>
							</g>
							<g transform="translate(0,13)">
								<path fill="none" d="M40,28h22.67v11H40V28z"/>
								<g>
									<g>
										<path opacity="0.3" fill="none" stroke="#FF0000" stroke-width="1.5" enable-background="new    " d="M51,34"/>
										<path opacity="0.3" fill="none" stroke="#FF0000" stroke-width="1.5" enable-background="new    " d="M41,34"/>
									</g>
								</g>
								<path display="none" d="M40,28"/>
							</g>
						</g>
					</g>
					<path display="none" d="M40,28"/>
				</g>
			</g>
		</g>
		<path display="none" d="M40,28"/>
	</g>
</g>
</svg>
